<svg width="22" height="22" viewBox="0 0 22 22" fill="none" xmlns="http://www.w3.org/2000/svg">
<g clip-path="url(#clip0_33_3773)">
<path d="M10.0833 17.4168V14.6668C10.0833 13.9375 9.7936 13.238 9.27788 12.7223C8.76215 12.2066 8.06268 11.9168 7.33334 11.9168H4.58334C3.85399 11.9168 3.15452 12.2066 2.63879 12.7223C2.12307 13.238 1.83334 13.9375 1.83334 14.6668V17.4168C1.83334 18.1462 2.12307 18.8456 2.63879 19.3614C3.15452 19.8771 3.85399 20.1668 4.58334 20.1668H7.33334C8.06268 20.1668 8.76215 19.8771 9.27788 19.3614C9.7936 18.8456 10.0833 18.1462 10.0833 17.4168ZM2.75 17.4168V14.6668C2.75 14.1806 2.94316 13.7143 3.28697 13.3705C3.63079 13.0267 4.09711 12.8335 4.58334 12.8335H7.33334C7.81957 12.8335 8.28588 13.0267 8.6297 13.3705C8.97351 13.7143 9.16667 14.1806 9.16667 14.6668V17.4168C9.16667 17.9031 8.97351 18.3694 8.6297 18.7132C8.28588 19.057 7.81957 19.2502 7.33334 19.2502H4.58334C4.09711 19.2502 3.63079 19.057 3.28697 18.7132C2.94316 18.3694 2.75 17.9031 2.75 17.4168ZM20.1667 14.6668C20.1667 13.9375 19.8769 13.238 19.3612 12.7223C18.8455 12.2066 18.146 11.9168 17.4167 11.9168H14.6667C13.9373 11.9168 13.2379 12.2066 12.7221 12.7223C12.2064 13.238 11.9167 13.9375 11.9167 14.6668V17.4168C11.9167 18.1462 12.2064 18.8456 12.7221 19.3614C13.2379 19.8771 13.9373 20.1668 14.6667 20.1668H17.4167C18.146 20.1668 18.8455 19.8771 19.3612 19.3614C19.8769 18.8456 20.1667 18.1462 20.1667 17.4168V14.6668ZM19.25 17.4168C19.25 17.9031 19.0568 18.3694 18.713 18.7132C18.3692 19.057 17.9029 19.2502 17.4167 19.2502H14.6667C14.1804 19.2502 13.7141 19.057 13.3703 18.7132C13.0265 18.3694 12.8333 17.9031 12.8333 17.4168V14.6668C12.8333 14.1806 13.0265 13.7143 13.3703 13.3705C13.7141 13.0267 14.1804 12.8335 14.6667 12.8335H17.4167C17.9029 12.8335 18.3692 13.0267 18.713 13.3705C19.0568 13.7143 19.25 14.1806 19.25 14.6668V17.4168ZM20.1667 4.5835C20.1667 3.85415 19.8769 3.15468 19.3612 2.63895C18.8455 2.12323 18.146 1.8335 17.4167 1.8335H14.6667C13.9373 1.8335 13.2379 2.12323 12.7221 2.63895C12.2064 3.15468 11.9167 3.85415 11.9167 4.5835V7.3335C11.9167 8.06284 12.2064 8.76231 12.7221 9.27804C13.2379 9.79376 13.9373 10.0835 14.6667 10.0835H17.4167C18.146 10.0835 18.8455 9.79376 19.3612 9.27804C19.8769 8.76231 20.1667 8.06284 20.1667 7.3335V4.5835ZM19.25 7.3335C19.25 7.81973 19.0568 8.28604 18.713 8.62986C18.3692 8.97367 17.9029 9.16683 17.4167 9.16683H14.6667C14.1804 9.16683 13.7141 8.97367 13.3703 8.62986C13.0265 8.28604 12.8333 7.81973 12.8333 7.3335V4.5835C12.8333 4.09727 13.0265 3.63095 13.3703 3.28713C13.7141 2.94332 14.1804 2.75016 14.6667 2.75016H17.4167C17.9029 2.75016 18.3692 2.94332 18.713 3.28713C19.0568 3.63095 19.25 4.09727 19.25 4.5835V7.3335ZM1.83334 4.5835V7.3335C1.83334 8.06284 2.12307 8.76231 2.63879 9.27804C3.15452 9.79376 3.85399 10.0835 4.58334 10.0835H7.33334C8.06268 10.0835 8.76215 9.79376 9.27788 9.27804C9.7936 8.76231 10.0833 8.06284 10.0833 7.3335V4.5835C10.0833 3.85415 9.7936 3.15468 9.27788 2.63895C8.76215 2.12323 8.06268 1.8335 7.33334 1.8335H4.58334C3.85399 1.8335 3.15452 2.12323 2.63879 2.63895C2.12307 3.15468 1.83334 3.85415 1.83334 4.5835ZM2.75 4.5835C2.75 4.09727 2.94316 3.63095 3.28697 3.28713C3.63079 2.94332 4.09711 2.75016 4.58334 2.75016H7.33334C7.81957 2.75016 8.28588 2.94332 8.6297 3.28713C8.97351 3.63095 9.16667 4.09727 9.16667 4.5835V7.3335C9.16667 7.81973 8.97351 8.28604 8.6297 8.62986C8.28588 8.97367 7.81957 9.16683 7.33334 9.16683H4.58334C4.09711 9.16683 3.63079 8.97367 3.28697 8.62986C2.94316 8.28604 2.75 7.81973 2.75 7.3335V4.5835ZM8.70834 14.885L5.55225 18.0292L3.88209 16.359L4.55859 15.6825L5.55225 16.6798L8.03184 14.2085L8.70834 14.885Z" fill="#939396" stroke="#939396" stroke-width="0.5"/>
</g>
<defs>
<clipPath id="clip0_33_3773">
<rect width="22" height="22" fill="white"/>
</clipPath>
</defs>
</svg>
