<svg width="22" height="22" viewBox="0 0 22 22" fill="none" xmlns="http://www.w3.org/2000/svg">
<g clip-path="url(#clip0_33_3779)">
<path d="M21.9897 7.82247C21.9067 6.27188 21.2503 4.81589 20.1412 3.72268C19.0155 2.61306 17.5455 2.00195 16.002 2.00195C13.6907 2.00195 12.0543 3.78719 11.1752 4.74635C11.1251 4.80089 11.0714 4.85948 11.0189 4.91614C10.9907 4.88419 10.9628 4.85233 10.9361 4.82198C10.1325 3.90659 8.46025 2.00195 5.99833 2.00195C4.45489 2.00195 2.98496 2.61306 1.85928 3.72268C0.750103 4.81589 0.0936328 6.27188 0.0106805 7.82247C-0.0717423 9.36388 0.320163 10.7014 1.28109 12.1595C2.14229 13.4665 4.385 15.533 6.04378 16.9054C7.74872 18.3161 9.99434 19.9977 11.0096 19.9977C12.0409 19.9977 14.2786 18.3196 15.9741 16.9119C17.6199 15.5454 19.8503 13.4806 20.7195 12.1589C21.3663 11.1755 22.0952 9.79382 21.9897 7.82247ZM19.6136 11.4316C18.982 12.3922 17.2017 14.1668 15.1835 15.8478C12.7771 17.8523 11.3524 18.6423 11.0107 18.6737C10.6695 18.6381 9.24124 17.8402 6.82309 15.832C4.79306 14.1462 3.01011 12.3775 2.38638 11.4311C1.59119 10.2246 1.26617 9.13346 1.33245 7.89306C1.4672 5.37458 3.56033 3.32557 5.99825 3.32557C7.86088 3.32557 9.21424 4.86707 9.94139 5.69509C10.3689 6.18204 10.6044 6.45022 11.0003 6.45022C11.4089 6.45022 11.6725 6.16263 12.151 5.64064C12.9447 4.77468 14.2731 3.32557 16.002 3.32557C18.44 3.32557 20.5331 5.37458 20.6679 7.89306C20.735 9.1475 20.4197 10.2058 19.6136 11.4316Z" fill="#939396"/>
</g>
<defs>
<clipPath id="clip0_33_3779">
<rect width="22" height="22" fill="white"/>
</clipPath>
</defs>
</svg>
