<svg width="22" height="22" viewBox="0 0 22 22" fill="none" xmlns="http://www.w3.org/2000/svg">
<path d="M12.8333 11.0002H13.2C13.3459 11.0002 13.4858 11.0581 13.5889 11.1613C13.6921 11.2644 13.75 11.4043 13.75 11.5502V14.1168C13.75 14.2627 13.6921 14.4026 13.5889 14.5057C13.4858 14.6089 13.3459 14.6668 13.2 14.6668H8.8C8.65413 14.6668 8.51424 14.6089 8.41109 14.5057C8.30795 14.4026 8.25 14.2627 8.25 14.1168V11.5502C8.25 11.4043 8.30795 11.2644 8.41109 11.1613C8.51424 11.0581 8.65413 11.0002 8.8 11.0002H9.16667M12.8333 11.0002V9.16683C12.8333 8.55541 12.4667 7.3335 11 7.3335C9.53333 7.3335 9.16667 8.55541 9.16667 9.16683V11.0002M12.8333 11.0002H9.16667" stroke="#808080" stroke-opacity="0.68" stroke-width="1.5" stroke-linecap="round" stroke-linejoin="round"/>
<path d="M1.83333 7.33336L10.7543 2.87286C10.8306 2.83477 10.9147 2.81494 11 2.81494C11.0853 2.81494 11.1694 2.83477 11.2457 2.87286L20.1667 7.33336M18.3333 10.0834V17.4167C18.3333 17.9029 18.1402 18.3692 17.7964 18.7131C17.4525 19.0569 16.9862 19.25 16.5 19.25H5.5C5.01377 19.25 4.54745 19.0569 4.20364 18.7131C3.85982 18.3692 3.66667 17.9029 3.66667 17.4167V10.0834" stroke="#808080" stroke-opacity="0.68" stroke-width="1.5" stroke-linecap="round" stroke-linejoin="round"/>
</svg>
