<svg width="22" height="22" viewBox="0 0 22 22" fill="none" xmlns="http://www.w3.org/2000/svg">
<path d="M15.32 12.0845H12.32V15.0845H15.32V12.0845Z" fill="#939396"/>
<path d="M20.32 12.0845H17.32V15.0845H20.32V12.0845Z" fill="#939396"/>
<path d="M15.32 17.0845H12.32V20.0845H15.32V17.0845Z" fill="#939396"/>
<path d="M20.32 17.0845H17.32V20.0845H20.32V17.0845Z" fill="#939396"/>
<path d="M22 6.50704H16.72V2.78873C16.72 1.20845 15.576 0 14.08 0H8.8C7.304 0 6.16 1.20845 6.16 2.78873V6.50704H0.88C0.352 6.50704 0 6.87887 0 7.43662C0 7.52958 0 7.52958 0 7.62254L1.672 18.8704C1.76 19.8 2.552 20.4507 3.432 20.4507H10.56V18.5915H3.432L1.936 8.3662H22V6.50704ZM7.92 2.78873C7.92 2.23099 8.272 1.85915 8.8 1.85915H14.08C14.608 1.85915 14.96 2.23099 14.96 2.78873V6.50704H7.92V2.78873Z" fill="#939396"/>
</svg>
