<svg width="22" height="22" viewBox="0 0 22 22" fill="none" xmlns="http://www.w3.org/2000/svg">
<path d="M18.6071 18.5899C16.5506 16.6922 13.8642 15.6235 11.0661 15.5899C8.26811 15.5562 5.5568 16.5602 3.45536 18.4079L2.50446 17.329C4.87245 15.2461 7.92793 14.1141 11.0814 14.1513C14.2348 14.1885 17.2628 15.3923 19.581 17.5304L18.6071 18.5899Z" fill="#939396"/>
<path d="M10.9295 6.29501C11.6351 6.29501 12.3248 6.50426 12.9115 6.89628C13.4982 7.28829 13.9555 7.84549 14.2256 8.49739C14.4956 9.14929 14.5662 9.86662 14.4286 10.5587C14.2909 11.2507 13.9511 11.8864 13.4522 12.3854C12.9532 12.8843 12.3175 13.2241 11.6255 13.3618C10.9334 13.4994 10.2161 13.4288 9.56422 13.1587C8.91232 12.8887 8.3551 12.4314 7.96308 11.8447C7.57107 11.258 7.36185 10.5683 7.36185 9.86266C7.363 8.91681 7.73921 8.01003 8.40803 7.34122C9.07684 6.6724 9.98362 6.29615 10.9295 6.29501ZM10.9295 4.85645C9.93933 4.85645 8.97144 5.15006 8.14817 5.70015C7.32491 6.25023 6.68326 7.0321 6.30435 7.94686C5.92544 8.86163 5.82631 9.86822 6.01948 10.8393C6.21264 11.8104 6.68942 12.7025 7.38955 13.4026C8.08969 14.1027 8.98173 14.5795 9.95284 14.7727C10.9239 14.9658 11.9305 14.8667 12.8453 14.4878C13.7601 14.1089 14.5419 13.4672 15.092 12.644C15.6421 11.8207 15.9357 10.8528 15.9357 9.86266C15.9357 8.53493 15.4082 7.26158 14.4694 6.32273C13.5305 5.38389 12.2572 4.85645 10.9295 4.85645Z" fill="#939396"/>
<path d="M11 1.43857C12.8911 1.43857 14.7397 1.99934 16.312 3.04996C17.8844 4.10058 19.1099 5.59387 19.8336 7.341C20.5573 9.08812 20.7466 11.0106 20.3777 12.8653C20.0088 14.7201 19.0981 16.4238 17.7609 17.761C16.4237 19.0981 14.7201 20.0088 12.8653 20.3777C11.0106 20.7466 9.08811 20.5573 7.34098 19.8336C5.59386 19.1099 4.10058 17.8844 3.04996 16.312C1.99933 14.7397 1.43855 12.8911 1.43855 11C1.44141 8.46502 2.44969 6.0347 4.24219 4.24221C6.03469 2.44971 8.46503 1.44142 11 1.43857ZM11 0C8.82441 0 6.69767 0.645147 4.88873 1.85384C3.07979 3.06254 1.66988 4.7805 0.837319 6.79048C0.00475526 8.80047 -0.213067 11.0122 0.211371 13.146C0.635808 15.2798 1.68345 17.2398 3.22183 18.7782C4.76021 20.3166 6.72022 21.3642 8.85401 21.7886C10.9878 22.2131 13.1995 21.9952 15.2095 21.1627C17.2195 20.3301 18.9374 18.9202 20.1461 17.1113C21.3548 15.3023 22 13.1756 22 11C22 8.08261 20.8411 5.28472 18.7782 3.22182C16.7153 1.15893 13.9174 0 11 0Z" fill="#939396"/>
</svg>
